<svg xmlns="http://www.w3.org/2000/svg" width="512" height="513" fill="none"><path fill="url(#a)" d="M405.325 442.075H112.237c-27.165 0-43.974-29.6-30.058-52.93l145.527-243.97c13.529-22.68 46.341-22.78 60.007-.184l147.56 243.97c14.108 23.326-2.688 53.114-29.948 53.114Z"/><path fill="url(#b)" fill-opacity=".25" d="M405.325 442.075H112.237c-27.165 0-43.974-29.6-30.058-52.93l145.527-243.97c13.529-22.68 46.341-22.78 60.007-.184l147.56 243.97c14.108 23.326-2.688 53.114-29.948 53.114Z"/><path fill="url(#c)" fill-opacity=".25" d="M405.325 442.075H112.237c-27.165 0-43.974-29.6-30.058-52.93l145.527-243.97c13.529-22.68 46.341-22.78 60.007-.184l147.56 243.97c14.108 23.326-2.688 53.114-29.948 53.114Z"/><path fill="url(#d)" fill-rule="evenodd" d="M256.929 282.766c-19.939 0-36.103-15.628-36.103-34.907V84.719c0-19.279 16.164-34.907 36.103-34.907s36.102 15.628 36.102 34.907v163.14c0 19.279-16.163 34.907-36.102 34.907Z" clip-rule="evenodd"/><path fill="url(#e)" fill-opacity=".8" fill-rule="evenodd" d="M256.929 282.766c-19.939 0-36.103-15.628-36.103-34.907V84.719c0-19.279 16.164-34.907 36.103-34.907s36.102 15.628 36.102 34.907v163.14c0 19.279-16.163 34.907-36.102 34.907Z" clip-rule="evenodd"/><path fill="url(#f)" fill-opacity=".8" fill-rule="evenodd" d="M256.929 282.766c-19.939 0-36.103-15.628-36.103-34.907V84.719c0-19.279 16.164-34.907 36.103-34.907s36.102 15.628 36.102 34.907v163.14c0 19.279-16.163 34.907-36.102 34.907Z" clip-rule="evenodd"/><path fill="url(#g)" fill-opacity=".3" fill-rule="evenodd" d="M256.929 282.766c-19.939 0-36.103-15.628-36.103-34.907V84.719c0-19.279 16.164-34.907 36.103-34.907s36.102 15.628 36.102 34.907v163.14c0 19.279-16.163 34.907-36.102 34.907Z" clip-rule="evenodd"/><circle cx="255.869" cy="344.491" r="38.505" fill="url(#h)"/><circle cx="255.869" cy="344.491" r="38.505" fill="url(#i)" fill-opacity=".5"/><circle cx="255.869" cy="344.491" r="38.505" fill="url(#j)" fill-opacity=".8"/><path fill="#FEE39E" d="M240.161 77.853c.735.642 2.067.32 2.977-.72.906-1.04 1.05-2.403.316-3.044-.734-.642-2.066-.32-2.973.72-.91 1.04-1.054 2.402-.32 3.044Zm6.051 12.112c.293-.135.559-.325.781-.556a2.543 2.543 0 0 0 .715-1.769 2.555 2.555 0 1 0-1.496 2.325Zm38.676 77.708a2.544 2.544 0 0 0 .492-1.51 2.555 2.555 0 1 0-.492 1.51Zm3.047 71.395a2.556 2.556 0 0 1-3.125 2.491l-.18-.048-.125-.041-.098-.039-.148-.066-.168-.09a2.556 2.556 0 1 1 3.844-2.207Zm-60.555-24.215c.254-.429.406-.965.406-1.546 0-1.411-.89-2.555-1.992-2.555-1.102 0-1.992 1.144-1.992 2.555 0 1.411.89 2.555 1.992 2.555.648 0 1.223-.395 1.586-1.009Zm14.535-113.338a1.893 1.893 0 0 1-2.848-.557 1.815 1.815 0 0 1-.093-.2l-.051-.139a1.894 1.894 0 1 1 3.433.388 1.917 1.917 0 0 1-.441.508Zm29.879 7.515a1.892 1.892 0 0 0 1.891-1.892l-.004-.144-.035-.248a1.86 1.86 0 0 0-.352-.763 1.913 1.913 0 0 0-1.059-.687 1.894 1.894 0 1 0-.441 3.734Zm3.781 44.34a1.892 1.892 0 1 1-3.785 0 1.894 1.894 0 0 1 3.328-1.233c.145.169.258.362.336.575.078.205.121.427.121.658Zm-31.062 42.989a1.892 1.892 0 0 0 1.761-2.585 1.893 1.893 0 0 0-3.656.692 1.89 1.89 0 0 0 1.895 1.893Zm29.32 48.538a1.895 1.895 0 0 1-3.187-1.381 1.893 1.893 0 1 1 3.187 1.381Z"/><defs><radialGradient id="b" cx="0" cy="0" r="1" gradientTransform="matrix(-4.99979 135.00045 -58.18001 -2.15472 241 187.402)" gradientUnits="userSpaceOnUse"><stop offset=".706" stop-color="#717171"/><stop offset="1" stop-color="#717171" stop-opacity="0"/></radialGradient><radialGradient id="c" cx="0" cy="0" r="1" gradientTransform="matrix(16.78131 -58 35.8889 10.38384 242 373.403)" gradientUnits="userSpaceOnUse"><stop offset=".611" stop-color="#717171"/><stop offset="1" stop-color="#717171" stop-opacity="0"/></radialGradient><radialGradient id="d" cx="0" cy="0" r="1" gradientTransform="matrix(98.4615 0 0 780.258 278.262 192.835)" gradientUnits="userSpaceOnUse"><stop stop-color="#FE983A"/><stop offset=".057" stop-color="#FE983A"/><stop offset=".189" stop-color="#FE7A3A"/><stop offset=".453" stop-color="#E33812"/><stop offset=".933" stop-color="#FE7A3A"/></radialGradient><radialGradient id="e" cx="0" cy="0" r="1" gradientTransform="matrix(-102.8696 284.11216 -121.9457 -44.15336 337.969 60.447)" gradientUnits="userSpaceOnUse"><stop offset=".612" stop-color="#F6EDE3" stop-opacity="0"/><stop offset=".828" stop-color="#E56F15"/><stop offset=".887" stop-color="#F15721"/><stop offset="1" stop-color="#F15721"/></radialGradient><radialGradient id="f" cx="0" cy="0" r="1" gradientTransform="rotate(-105.419 276.567 31.962) scale(296.26 126.511)" gradientUnits="userSpaceOnUse"><stop offset=".739" stop-color="#FB7F2C" stop-opacity="0"/><stop offset=".933" stop-color="#FB7F2C"/></radialGradient><radialGradient id="g" cx="0" cy="0" r="1" gradientTransform="matrix(43.41442 61.4061 -48.82214 34.5175 272.924 67.357)" gradientUnits="userSpaceOnUse"><stop stop-color="#fff"/><stop offset=".109" stop-color="#fff"/><stop offset=".263" stop-color="#fff" stop-opacity="0"/></radialGradient><radialGradient id="h" cx="0" cy="0" r="1" gradientTransform="rotate(108.435 13.788 258.257) scale(70.7875)" gradientUnits="userSpaceOnUse"><stop offset=".068" stop-color="#FFC56D"/><stop offset=".25" stop-color="#FF9B04"/><stop offset=".645" stop-color="#E66000"/><stop offset="1" stop-color="#CBFBB5"/></radialGradient><radialGradient id="i" cx="0" cy="0" r="1" gradientTransform="matrix(0 -27.8829 55.102 0 254.541 382.996)" gradientUnits="userSpaceOnUse"><stop stop-color="#CBFBB5"/><stop offset="1" stop-color="#CBFBB5" stop-opacity="0"/></radialGradient><radialGradient id="j" cx="0" cy="0" r="1" gradientTransform="rotate(97.815 -22.284 283.82) scale(68.3506)" gradientUnits="userSpaceOnUse"><stop offset=".446" stop-color="#fff" stop-opacity="0"/><stop offset=".841" stop-color="#fff"/></radialGradient><linearGradient id="a" x1="418.367" x2="92.332" y1="108.233" y2="679.162" gradientUnits="userSpaceOnUse"><stop offset=".368" stop-color="#E7E7E7"/><stop offset=".789" stop-color="#FEE39E"/></linearGradient></defs></svg>